<svg width="389" height="290" viewBox="0 0 389 290" fill="none" xmlns="http://www.w3.org/2000/svg">
<path opacity="0.3" d="M388.615 248.004C388.615 248.383 388.539 248.838 388.463 249.218C386.566 264.018 373.587 274.948 358.635 274.948H61.4899C45.0197 274.948 29.1568 268.117 18.2274 255.821C18.1515 255.745 18.0756 255.669 17.9997 255.593C17.5443 255.062 17.0889 254.607 16.6335 254.075C4.41374 239.655 -2.64487 219.39 3.42706 201.477C9.57488 183.186 13.1421 171.801 29.005 161.023C44.9439 150.246 61.6417 136.66 64.2222 117.533C66.8787 98.027 53.824 79.8871 51.7748 60.3051C49.346 36.8523 67.2582 14.0067 98.225 1.93875C120.16 -6.56195 151.203 15.3729 174.2 19.9268C201.903 25.4675 206.078 -2.3116 270.895 2.39414C408.273 12.4128 354.46 146.071 361.974 168.082C368.046 185.766 392.334 208.764 388.615 248.004Z" fill="#D2E4FF"/>
<path d="M110.141 214.077H83.5001C83.3483 214.077 83.1965 213.925 83.1965 213.773C83.1965 213.621 83.3483 213.47 83.5001 213.47H110.141C110.293 213.47 110.444 213.621 110.444 213.773C110.444 213.925 110.293 214.077 110.141 214.077ZM110.141 227.283H83.5001C83.3483 227.283 83.1965 227.131 83.1965 226.98C83.1965 226.828 83.3483 226.676 83.5001 226.676H110.141C110.293 226.676 110.444 226.828 110.444 226.98C110.444 227.131 110.293 227.283 110.141 227.283ZM105.283 220.68H67.5613C67.4095 220.68 67.2577 220.528 67.2577 220.376C67.2577 220.225 67.4095 220.073 67.5613 220.073H105.283C105.435 220.073 105.587 220.225 105.587 220.376C105.587 220.528 105.435 220.68 105.283 220.68Z" fill="#C6E2FA"/>
<path d="M88.9643 214.077C88.8125 214.077 88.6607 213.925 88.6607 213.773V208.156C88.6607 208.005 88.8125 207.853 88.9643 207.853C89.1161 207.853 89.2679 208.005 89.2679 208.156V213.773C89.2679 213.925 89.1161 214.077 88.9643 214.077ZM98.2998 220.68C98.148 220.68 97.9963 220.528 97.9963 220.376V213.773C97.9963 213.621 98.148 213.469 98.2998 213.469C98.4516 213.469 98.6034 213.621 98.6034 213.773V220.376C98.6034 220.528 98.5275 220.68 98.2998 220.68ZM91.2412 227.055C91.0894 227.055 90.9376 226.904 90.9376 226.752V220.376C90.9376 220.224 91.0894 220.073 91.2412 220.073C91.393 220.073 91.5448 220.224 91.5448 220.376V226.752C91.4689 226.904 91.393 227.055 91.2412 227.055Z" fill="#C6E2FA"/>
<path d="M294.347 159.354H102.55V274.189H294.347V159.354Z" fill="white"/>
<path d="M294.423 274.568H102.55C102.322 274.568 102.17 274.417 102.17 274.189V159.354C102.17 159.126 102.322 158.974 102.55 158.974H294.347C294.575 158.974 294.726 159.126 294.726 159.354V274.189C294.802 274.417 294.575 274.568 294.423 274.568ZM102.929 273.809H293.967V159.733H102.929V273.809Z" fill="#060405"/>
<path d="M294.423 159.354L278.332 170.207L198.486 224.095L118.64 170.207L102.55 159.354H294.423Z" fill="#060405"/>
<path d="M102.55 159.354L198.486 94.6876L294.423 159.354H102.55Z" fill="#060405"/>
<path d="M198.487 224.475C198.411 224.475 198.335 224.475 198.259 224.399L102.323 159.657C102.171 159.581 102.095 159.353 102.171 159.201C102.247 159.05 102.399 158.898 102.55 158.898H294.347C294.499 158.898 294.651 158.974 294.727 159.201C294.803 159.353 294.727 159.505 294.575 159.657L198.639 224.399C198.639 224.475 198.563 224.475 198.487 224.475ZM103.841 159.733L198.487 223.64L293.133 159.733H103.841Z" fill="#060405"/>
<path d="M294.423 159.733H102.55C102.399 159.733 102.247 159.657 102.171 159.429C102.095 159.278 102.171 159.126 102.323 158.974L198.259 94.2321C198.411 94.1562 198.563 94.1562 198.715 94.2321L294.651 158.974C294.803 159.05 294.879 159.278 294.803 159.429C294.727 159.657 294.575 159.733 294.423 159.733ZM103.841 158.974H293.209L198.563 95.067L103.841 158.974Z" fill="#060405"/>
<path d="M278.333 84.517V170.283L198.487 224.171L118.641 170.283V84.517C118.641 80.2666 122.133 76.7753 126.383 76.7753H270.515C274.842 76.6994 278.333 80.1907 278.333 84.517Z" fill="#6193F6"/>
<path opacity="0.1" d="M248.201 92.4865V112.068C248.201 113.662 246.911 114.953 245.317 114.953H155.073C153.479 114.953 152.189 113.662 152.189 112.068V92.4865C152.189 90.8926 153.479 89.6023 155.073 89.6023H245.317C246.911 89.6023 248.201 90.8926 248.201 92.4865Z" fill="black"/>
<path opacity="0.1" d="M118.641 166.867L184.977 211.648L182.548 213.317L118.641 170.207V166.867Z" fill="black"/>
<path opacity="0.1" d="M278.333 166.867V170.207L214.426 213.317L211.997 211.648L278.333 166.867Z" fill="black"/>
<path opacity="0.08" d="M294.423 269.483V274.264H102.55V269.483L182.548 213.393L184.976 211.648L192.49 206.411C196.058 203.906 200.839 203.906 204.406 206.411L211.92 211.724L214.349 213.469L294.423 269.483Z" fill="black"/>
<path d="M294.423 274.265H102.55L193.781 210.282C196.665 208.309 200.384 208.309 203.268 210.282L294.423 274.265Z" fill="#D2E4FF"/>
<path d="M294.423 274.644H102.55C102.399 274.644 102.247 274.568 102.171 274.416C102.095 274.265 102.171 274.113 102.323 273.961L193.478 209.978C196.438 207.929 200.384 207.929 203.344 209.978L294.499 273.961C294.651 274.037 294.727 274.265 294.651 274.416C294.575 274.568 294.575 274.644 294.423 274.644ZM103.765 273.885H293.209L203.041 210.585C200.308 208.688 196.741 208.688 194.009 210.585L103.765 273.885Z" fill="#060405"/>
<path d="M297.991 278.135L299.357 277.073L293.058 269.103C290.401 271.077 285.392 274.72 285.316 274.644L295.562 287.623C300.192 284.663 297.991 278.135 297.991 278.135Z" fill="#FF7545"/>
<path d="M297.308 285.953C296.852 286.56 296.321 287.091 295.562 287.623L285.316 274.644C285.316 274.644 286.151 274.113 287.289 273.278L297.308 285.953ZM299.357 278.363C300.875 278.591 347.249 233.127 348.843 219.01C349.982 208.688 337.231 186.07 332.753 180.529C332.146 179.77 331.766 179.315 331.766 179.315L320.912 170.283L313.095 163.755L308.161 171.952L305.733 176.051L305.809 177.038L307.706 196.999C307.706 196.999 324.328 219.086 325.239 220.224C326.15 221.363 293.285 268.42 292.374 269.331C291.691 270.014 297.839 278.135 299.357 278.363Z" fill="#060405"/>
<path d="M320.609 279.805V278.135H310.438C310.286 281.399 310.059 287.622 309.983 287.622H326.529C327.06 282.158 320.609 279.805 320.609 279.805Z" fill="#FF7545"/>
<path d="M326.3 285.194C326.527 285.877 326.603 286.712 326.527 287.547H309.981C309.981 287.547 310.057 286.56 310.133 285.194H326.3ZM289.641 177.417L318.33 180.605L321.215 278.742C321.215 279.426 309.981 279.046 310.057 278.363C310.589 280.716 294.65 214.228 292.449 204.361C289.033 188.878 289.641 177.417 289.641 177.417Z" fill="#060405"/>
<path d="M358.33 110.929C358.33 110.929 360.379 103.34 362.884 108.652C365.389 114.041 361.594 117.381 361.594 117.381C361.594 117.381 354.232 150.473 344.972 153.205C343.606 153.585 342.164 153.737 340.873 153.585C333.359 152.826 327.439 144.629 327.439 144.629L339.052 128.386L339.507 128.918L344.289 134.23L354.763 115.18" fill="white"/>
<path d="M342.086 153.964C341.707 153.964 341.252 153.964 340.872 153.888C333.282 153.129 327.362 145.084 327.134 144.781C327.058 144.629 327.058 144.477 327.134 144.325L338.747 128.083C338.823 128.007 338.899 127.931 339.05 127.931C339.202 127.931 339.278 128.007 339.354 128.083L344.287 133.472L354.458 114.952L354.534 114.876C354.686 114.724 354.913 114.724 355.065 114.876C355.217 115.028 355.217 115.18 355.065 115.332L344.667 134.306C344.591 134.382 344.515 134.458 344.363 134.534C344.212 134.534 344.136 134.534 344.06 134.382L339.126 128.918L327.969 144.553C328.956 145.843 334.421 152.446 341.024 153.129C342.314 153.281 343.68 153.129 344.971 152.826C354.003 150.245 361.289 117.609 361.365 117.305C361.365 117.229 361.441 117.153 361.517 117.077C361.668 116.926 365.008 113.814 362.655 108.804C362.124 107.666 361.592 107.059 361.137 107.135C360.15 107.21 359.164 109.791 358.86 111.005C358.86 111.081 358.86 111.081 358.784 111.157C358.632 111.309 358.405 111.385 358.253 111.233C358.101 111.081 358.025 110.93 358.177 110.778C358.329 110.095 359.391 106.603 361.137 106.451C361.972 106.376 362.731 107.059 363.414 108.577C365.767 113.662 362.731 117.077 362.124 117.609C361.592 120.037 354.458 150.928 345.198 153.585C344.136 153.888 343.073 153.964 342.086 153.964ZM340.493 105.085C339.506 103.34 339.506 100.759 341.707 99.2411L348.158 95.9015C348.386 95.8256 348.614 95.9015 348.69 96.0533L352.257 103.643C352.333 103.871 352.257 104.099 352.029 104.175L345.426 106.983C343.453 107.894 341.555 106.907 340.493 105.085ZM348.234 96.8123L342.162 99.9242C340.341 101.139 340.417 103.264 341.176 104.706C341.935 106.072 343.453 107.059 345.198 106.3L351.422 103.643L348.234 96.8123Z" fill="#060405"/>
<path d="M364.326 114.876L361.366 116.85C360.987 117.078 360.38 117.002 360.152 116.622L354.384 107.97L352.79 105.465C352.562 105.085 352.638 104.478 353.017 104.251L355.977 102.277C356.433 101.974 356.964 102.125 357.192 102.505L359.241 105.541L364.63 113.662C364.933 114.042 364.782 114.573 364.326 114.876Z" fill="#FFD964"/>
<path d="M385.274 101.594C382.693 100.152 378.822 95.3703 375.179 88.9188C375.179 88.9188 375.179 88.843 375.103 88.843C373.434 85.807 373.054 85.1239 371.916 82.771C371.916 82.771 371.916 82.6951 371.84 82.6951C368.424 75.4088 366.527 68.7297 366.679 65.1624C366.83 64.4793 367.134 63.3409 367.134 63.1132C367.286 62.8855 367.513 62.6578 367.817 62.5819C370.549 61.4434 377.077 69.3369 382.39 80.1905C389.6 94.4595 390.283 104.858 385.274 101.594Z" fill="#060405"/>
<path d="M385.123 101.898C382.466 100.38 378.596 95.598 374.877 89.1466C373.434 86.7937 371.841 83.3023 371.689 82.9229C371.689 82.9229 371.689 82.8469 371.613 82.8469C368.273 75.6365 366.3 68.8815 366.452 65.1625C366.452 65.0866 366.831 63.4927 366.907 63.1132C366.907 62.8096 367.438 62.3542 367.818 62.2024C371.082 60.8362 378.064 70.1718 382.846 80.0387C387.4 89.2225 389.753 97.875 388.614 101.139C388.387 101.746 388.007 102.201 387.552 102.429C386.717 102.733 385.806 102.429 385.123 101.898ZM375.56 88.7671C375.636 88.843 381.176 98.8617 385.502 101.29C390.36 104.402 388.387 92.7138 382.239 80.4182C376.622 68.9574 370.323 62.0506 368.122 62.9614C367.97 63.0373 367.818 63.1132 367.666 63.3409C367.59 63.9481 367.438 64.4794 367.211 65.3902C367.059 68.9574 369.032 75.5606 372.296 82.6192C372.751 83.3023 372.979 84.2131 375.56 88.7671C375.484 88.6912 375.484 88.7671 375.56 88.7671ZM366.148 116.015L362.581 118.292C362.125 118.595 361.442 118.444 361.139 117.988L354.308 107.59L352.334 104.63C352.031 104.175 352.183 103.492 352.638 103.188L356.205 100.911C356.737 100.607 357.42 100.683 357.723 101.215L360.152 104.858L366.528 114.573C366.755 115.028 366.679 115.711 366.148 116.015Z" fill="#060405"/>
<path d="M377.761 90.1335L376.471 90.8925C373.814 86.1867 373.283 84.9723 371.537 81.3292C371.537 81.3292 371.537 81.2533 371.461 81.1774L372.22 80.722C374.801 79.204 378.141 80.0389 379.734 82.6195C381.252 85.2759 380.342 88.6155 377.761 90.1335Z" fill="white"/>
<path d="M376.09 91.044C372.522 84.6685 372.295 83.8336 371.08 81.4048C370.777 80.7976 371.232 80.7976 371.915 80.3422C374.723 78.6724 378.215 79.5832 379.884 82.3915C381.554 85.1998 380.568 88.767 377.835 90.4368L376.545 91.1958C376.469 91.3476 376.241 91.2717 376.09 91.044ZM371.915 81.3289C372.75 82.9987 373.433 84.6685 376.621 90.3609L377.607 89.8296C380.036 88.3875 380.871 85.2756 379.429 82.8469C377.987 80.4181 374.875 79.6591 372.446 81.1012L371.915 81.3289Z" fill="#060405"/>
<path d="M366.68 113.738C365.01 114.8 362.43 113.738 360.836 111.385C359.242 109.032 359.394 106.148 361.063 105.085C362.733 103.947 368.35 112.599 366.68 113.738Z" fill="white"/>
<path d="M363.642 114.193C362.504 113.738 361.365 112.751 360.606 111.537C359.847 110.323 359.392 108.956 359.468 107.666C359.544 106.376 360.075 105.313 360.986 104.706C361.213 104.554 361.669 104.402 362.276 104.782C364.249 105.769 367.361 110.702 367.513 112.827C367.513 113.51 367.285 113.89 367.058 114.042C365.919 114.649 364.705 114.649 363.642 114.193ZM361.441 105.313C361.365 105.313 361.365 105.313 361.289 105.313C360.606 105.769 360.151 106.603 360.151 107.666C360.151 108.805 360.454 110.019 361.213 111.081C361.896 112.144 362.883 112.979 363.946 113.434C364.932 113.814 365.843 113.814 366.526 113.358C366.678 113.283 366.754 112.827 366.45 111.84C366.147 110.93 365.616 109.867 364.857 108.729C364.173 107.666 363.339 106.679 362.655 105.996C362.048 105.541 361.669 105.313 361.441 105.313Z" fill="#060405"/>
<path d="M354.762 115.18C354.762 115.18 354.762 107.742 356.963 108.501C359.164 109.26 358.253 113.51 358.253 113.51" fill="white"/>
<path d="M354.762 115.559C354.534 115.559 354.383 115.408 354.383 115.18C354.383 114.573 354.458 109.412 355.976 108.273C356.28 108.045 356.735 107.97 357.115 108.121C359.62 108.956 358.709 113.358 358.633 113.51C358.557 113.738 358.405 113.814 358.177 113.814C357.95 113.738 357.874 113.586 357.874 113.358C358.102 112.296 358.329 109.336 356.811 108.804C356.66 108.729 356.508 108.729 356.356 108.88C355.445 109.563 355.066 113.055 355.066 115.18C355.142 115.332 354.99 115.559 354.762 115.559Z" fill="#060405"/>
<path d="M355.521 90.3611L345.274 95.8259C340.72 99.0895 346.033 108.273 350.891 106.224L360.606 101.442L355.521 90.3611Z" fill="#060405"/>
<path d="M385.273 101.594C380.795 100.759 369.714 99.3931 360.606 101.442C359.316 101.366 357.722 100.076 356.507 98.3305C354.686 95.674 353.699 91.955 355.445 89.8298C355.445 89.8298 363.642 76.9269 366.754 65.2385C366.602 69.0334 368.803 76.4716 372.674 84.441C375.103 89.0708 380.795 99.1654 385.273 101.594Z" fill="white"/>
<path d="M385.197 101.973C381.857 101.366 370.245 99.6206 360.682 101.822H360.606C359.24 101.746 357.57 100.531 356.204 98.558C354.306 95.8256 353.244 91.8789 355.217 89.6019C355.293 89.526 363.414 76.6232 366.45 65.1624C366.602 64.707 367.209 64.8588 367.209 65.3142C367.057 69.1851 369.334 76.6232 373.129 84.289C375.406 88.8429 381.098 98.8616 385.501 101.29C385.88 101.518 385.652 102.049 385.197 101.973ZM366.602 67.5153C363.186 78.5206 355.9 89.9055 355.824 90.0573C354.154 91.9548 355.065 95.522 356.887 98.1026C358.101 99.8483 359.467 100.987 360.606 101.063C369.106 99.1652 379.125 100.228 383.755 100.987C377.304 95.6738 367.816 77.7617 366.602 67.5153Z" fill="#060405"/>
<path d="M287.592 139.619C287.592 139.619 285.695 179.466 287.213 181.516C290.553 185.918 330.02 185.159 334.043 180.833C334.498 180.301 330.855 142.124 330.855 142.124C336.016 139.316 340.494 133.32 341.708 127.703C341.708 127.703 338.369 122.542 333.36 118.064C322.734 108.501 302.848 109.563 291.995 114.041C282.28 118.064 275.676 129.828 275.676 129.828C276.511 132.485 282.811 138.936 287.592 139.619Z" fill="#B580D8"/>
<path d="M330.854 142.504C330.778 142.504 330.778 142.504 330.702 142.504C330.626 142.428 330.55 142.352 330.475 142.276L327.287 128.235C327.211 128.007 327.363 127.855 327.59 127.779C327.818 127.703 327.97 127.855 328.046 128.083L331.082 141.593C335.939 138.785 340.114 133.092 341.328 127.703C341.404 127.476 341.556 127.4 341.784 127.4C342.011 127.476 342.087 127.627 342.087 127.855C340.797 133.623 336.243 139.695 331.082 142.504C330.93 142.504 330.854 142.504 330.854 142.504Z" fill="#060405"/>
<path d="M328.122 171.193H316.433C315.143 171.193 314.156 169.979 314.46 168.689L319.242 149.107C319.469 148.196 320.304 147.513 321.215 147.513H332.903C334.194 147.513 335.18 148.727 334.877 150.018L330.095 169.6C329.867 170.586 329.033 171.193 328.122 171.193Z" fill="#060405"/>
<path d="M327.439 163.679C324.934 172.256 312.411 164.514 312.411 164.514C312.411 164.514 273.55 165.349 267.706 151.308C264.594 143.946 281.596 123.605 281.596 123.605L293.056 135.293L287.136 143.87L314.46 156.09C314.46 156.09 317.344 151.08 318.634 151.763L317.496 156.317C317.496 156.241 329.943 155.103 327.439 163.679Z" fill="white"/>
<path d="M321.974 168.158C317.799 168.158 313.094 165.425 312.259 164.894C309.526 164.97 273.095 165.349 267.251 151.46C264.139 143.946 280.533 124.212 281.216 123.377C281.292 123.301 281.368 123.225 281.52 123.225C281.596 123.225 281.747 123.225 281.823 123.301L293.284 134.99C293.436 135.141 293.436 135.293 293.36 135.445L287.667 143.642L314.308 155.558C315.219 154.04 317.42 150.625 318.862 151.308C319.014 151.384 319.09 151.536 319.09 151.763L318.103 155.786C319.773 155.71 324.934 155.71 327.211 158.442C328.349 159.809 328.577 161.554 327.894 163.755C326.983 166.715 324.934 168.158 321.974 168.158ZM312.411 164.135C312.486 164.135 312.562 164.135 312.638 164.211C312.714 164.287 319.925 168.689 324.251 167.019C325.617 166.488 326.604 165.349 327.135 163.604C327.666 161.706 327.514 160.112 326.604 158.974C324.175 156.09 317.724 156.621 317.648 156.621C317.496 156.621 317.42 156.621 317.344 156.469C317.268 156.393 317.268 156.241 317.268 156.166L318.255 152.067C317.496 152.371 315.978 154.344 314.839 156.241C314.763 156.393 314.536 156.469 314.384 156.393L287.06 144.173C286.984 144.098 286.908 144.022 286.833 143.946C286.757 143.87 286.833 143.718 286.908 143.642L292.677 135.369L281.671 124.212C279.546 126.868 265.353 144.553 268.085 151.156C273.702 164.818 312.031 164.135 312.411 164.135Z" fill="#060405"/>
<path d="M291.995 114.041C301.786 123.605 297.004 138.936 289.945 141.821C285.24 141.213 276.511 132.485 275.676 129.828C275.676 129.828 282.28 118.064 291.995 114.041Z" fill="#B580D8"/>
<path d="M304.214 111.461C304.214 111.461 305.883 115.332 316.206 118.14L318.179 111.309C318.407 112.22 318.027 108.045 317.648 104.099C317.344 100.455 309.071 92.6377 308.54 92.1823C308.54 92.1823 308.236 97.723 306.946 103.34C306.111 106.3 305.656 109.26 304.214 111.461Z" fill="white"/>
<path d="M316.207 118.444H316.131C305.732 115.636 303.987 111.765 303.911 111.537C303.835 111.385 303.911 111.309 303.911 111.157C305.049 109.488 305.581 107.211 306.112 104.858C306.264 104.251 306.34 103.719 306.491 103.112C307.782 97.6474 308.085 92.1068 308.085 92.0309C308.085 91.8791 308.161 91.7273 308.313 91.7273C308.465 91.6514 308.541 91.7273 308.693 91.8032C308.693 91.8032 308.693 91.8032 308.768 91.8032C308.844 91.8791 317.649 100.076 318.028 103.947C318.635 110.474 318.711 111.385 318.484 111.613L316.586 118.14C316.51 118.368 316.358 118.444 316.207 118.444ZM304.67 111.461C305.125 112.22 307.478 115.332 315.903 117.609C317.8 111.006 317.8 111.082 317.8 111.006C317.725 110.019 317.421 106.755 317.193 104.023C316.89 101.063 310.742 94.7633 308.768 92.8658C308.617 94.6115 308.237 98.9377 307.175 103.264C307.023 103.871 306.871 104.402 306.795 105.01C306.34 107.438 305.808 109.639 304.67 111.461Z" fill="#060405"/>
<path d="M308.086 93.7765C308.086 93.7765 307.782 107.59 318.788 108.805C331.387 110.171 326.529 84.6687 326.529 84.6687L318.256 78.2931L308.541 80.4183L304.139 86.9456L308.086 93.7765Z" fill="white"/>
<path d="M318.787 109.184C308.085 108.046 307.781 95.2187 307.706 93.9284L303.911 87.0975C303.835 86.9457 303.835 86.7939 303.911 86.718L308.313 80.1907C308.389 80.1148 308.465 80.0389 308.54 80.0389L318.256 77.9137C318.331 77.9137 318.483 77.9137 318.559 77.9896L326.832 84.3651C326.908 84.441 326.984 84.5169 326.984 84.5928C327.136 85.2759 330.096 101.291 324.707 107.135C323.113 108.805 321.064 109.412 318.787 109.184ZM304.67 86.9457L308.465 93.6248C308.465 93.7007 308.54 93.7766 308.54 93.8525C308.54 94.0043 308.389 107.363 318.939 108.425C321.14 108.653 322.885 108.046 324.176 106.604C329.033 101.291 326.529 86.4144 326.301 84.8205L318.331 78.5968L308.996 80.6461L304.67 86.9457Z" fill="#060405"/>
<path d="M299.812 89.8297C297.156 92.4862 301.33 102.505 306.871 103.264C308.237 97.6473 308.769 92.1067 308.769 92.1067C308.769 92.1067 310.438 88.9189 310.514 88.9189C310.59 88.9189 312.943 87.5527 312.488 85.5035C312.032 83.5301 313.019 83.9096 314.613 84.1373C317.117 84.4409 329.413 90.0574 331.69 84.9722C336.548 73.8909 319.546 72.7524 312.943 74.0427C306.34 75.333 304.67 77.1546 301.255 80.6459C300.04 81.9362 302.393 87.2491 299.812 89.8297Z" fill="#060405"/>
<path d="M324.327 93.0173C324.327 93.7004 323.947 94.2317 323.568 94.2317C323.113 94.2317 322.809 93.7004 322.809 93.0173C322.809 92.3342 323.188 91.8029 323.568 91.8029C324.023 91.8029 324.327 92.3342 324.327 93.0173ZM317.724 93.3968C317.724 94.0799 317.344 94.6112 316.965 94.6112C316.509 94.6112 316.206 94.0799 316.206 93.3968C316.206 92.7137 316.585 92.1824 316.965 92.1824C317.344 92.2583 317.724 92.7896 317.724 93.3968Z" fill="#060405"/>
<path d="M319.775 99.4691C319.623 99.3173 319.623 99.0896 319.775 98.9378L321.141 97.6475C321.293 97.4957 321.369 97.4198 321.369 97.4198C321.369 97.4198 320.99 97.268 320.838 97.1921C320.231 96.8126 320.155 96.1295 320.155 95.6741L319.851 93.0176C319.851 92.7899 320.003 92.6381 320.155 92.5622C320.382 92.5622 320.534 92.714 320.61 92.8658L320.914 95.5223C320.99 95.9018 321.066 96.2813 321.293 96.4331C321.521 96.5849 321.976 96.6608 322.128 97.1162C322.28 97.6475 321.825 98.027 321.749 98.1029L320.382 99.3932C320.155 99.6209 319.851 99.6209 319.775 99.4691Z" fill="#060405"/>
<path d="M318.558 104.099C317.951 104.099 317.344 103.795 316.889 103.34C316.737 103.188 316.737 102.96 316.889 102.808C317.041 102.657 317.268 102.657 317.42 102.808C317.724 103.112 318.179 103.34 318.558 103.34C319.014 103.34 319.393 103.188 319.773 102.96C319.925 102.808 320.152 102.808 320.304 103.036C320.456 103.264 320.456 103.416 320.228 103.567C319.849 103.871 319.166 104.099 318.558 104.099Z" fill="#060405"/>
<path d="M290.097 142.731C289.187 142.731 288.352 142.276 287.669 141.745C282.963 138.557 278.788 134.686 275.221 130.284C275.069 130.132 275.145 129.904 275.297 129.753C275.449 129.601 275.677 129.677 275.828 129.828C279.32 134.231 283.494 138.026 288.124 141.137C288.807 141.593 289.414 141.972 290.097 141.972C290.856 141.972 291.691 141.441 292.374 140.91C294.348 139.316 296.169 137.494 297.763 135.445C297.915 135.293 298.143 135.217 298.295 135.369C298.446 135.521 298.522 135.749 298.37 135.9C296.777 137.95 294.879 139.847 292.83 141.441C291.995 142.2 291.084 142.731 290.097 142.731Z" fill="#060405"/>
<path d="M246.531 90.6649V110.247C246.531 111.841 245.241 113.131 243.647 113.131H153.403C151.809 113.131 150.519 111.841 150.519 110.247V90.6649C150.519 89.071 151.809 87.7807 153.403 87.7807H243.647C245.241 87.7048 246.531 89.071 246.531 90.6649Z" fill="#F2CB2A"/>
<path d="M164.408 97.268C164.256 97.4198 164.18 97.5716 164.18 97.7993V102.885L160.385 97.4198C160.082 97.0403 159.778 96.9644 159.55 96.9644H159.399C159.095 96.9644 158.867 97.0403 158.715 97.268C158.564 97.4957 158.412 97.7234 158.412 97.9511V104.554C158.412 104.782 158.488 104.934 158.64 105.086C158.943 105.389 159.399 105.389 159.702 105.086C159.854 104.934 159.93 104.782 159.93 104.554V99.3931L163.725 104.858C163.801 105.01 163.953 105.086 164.028 105.161C164.18 105.237 164.332 105.237 164.484 105.237H164.636C164.939 105.237 165.167 105.161 165.319 104.934C165.546 104.706 165.622 104.478 165.622 104.251V97.6475C165.622 97.4198 165.546 97.268 165.395 97.1162C165.243 96.9644 164.711 96.9644 164.408 97.268ZM173.364 98.5583C173.592 98.5583 173.743 98.4824 173.895 98.3306C174.047 98.1788 174.123 98.027 174.123 97.7993C174.123 97.5716 174.047 97.4198 173.895 97.268C173.743 97.1162 173.592 97.0403 173.364 97.0403H168.962C168.734 97.0403 168.582 97.1162 168.431 97.268C168.279 97.4198 168.203 97.5716 168.203 97.7993V104.478C168.203 104.706 168.279 104.858 168.431 105.01C168.582 105.161 168.734 105.237 168.962 105.237H173.364C173.592 105.237 173.743 105.161 173.895 105.01C174.047 104.858 174.123 104.706 174.123 104.478C174.123 104.251 174.047 104.099 173.895 103.947C173.743 103.795 173.592 103.719 173.364 103.719H169.721V101.822H172.985C173.212 101.822 173.364 101.746 173.516 101.594C173.668 101.442 173.743 101.291 173.743 101.063C173.743 100.835 173.668 100.683 173.516 100.532C173.364 100.38 173.212 100.304 172.985 100.304H169.721V98.4065H173.364V98.5583ZM185.128 97.1921C184.977 97.268 184.901 97.4198 184.825 97.5716L183.231 102.809L181.637 97.5716C181.561 97.4198 181.485 97.268 181.333 97.1162C181.03 96.8885 180.65 96.8885 180.347 97.1162C180.195 97.1921 180.119 97.3439 180.043 97.5716L178.449 102.809L176.855 97.5716C176.779 97.4198 176.704 97.268 176.552 97.1921C176.248 96.9644 175.793 96.9644 175.565 97.268C175.413 97.4198 175.337 97.5716 175.337 97.7993C175.337 97.8752 175.337 97.9511 175.413 98.1029L177.538 104.706C177.614 104.934 177.766 105.086 177.918 105.161C178.222 105.389 178.677 105.389 179.056 105.161C179.208 105.01 179.36 104.858 179.36 104.706L180.878 99.8485L182.396 104.706C182.472 104.934 182.548 105.086 182.7 105.161C182.851 105.313 183.079 105.313 183.231 105.313C183.459 105.313 183.61 105.237 183.762 105.161C183.914 105.086 184.066 104.858 184.142 104.63L186.267 98.027C186.267 97.9511 186.343 97.8752 186.343 97.7993C186.343 97.5716 186.267 97.4198 186.115 97.268C185.887 97.0403 185.432 96.9644 185.128 97.1921ZM192.263 100.911C191.883 100.759 191.428 100.608 190.821 100.456C190.365 100.38 190.062 100.228 189.758 100.152C189.531 100.076 189.379 99.9244 189.227 99.8485C189.075 99.6967 189.075 99.6208 189.075 99.3931C189.075 99.0896 189.227 98.8619 189.53 98.7101C190.214 98.3306 191.504 98.3306 192.491 98.7101C192.566 98.786 192.718 98.786 192.794 98.786C193.022 98.786 193.174 98.7101 193.325 98.5583C193.477 98.4065 193.477 98.2547 193.477 98.1029C193.477 97.7993 193.325 97.4957 193.022 97.4198C192.339 97.1921 191.58 97.0403 190.745 97.0403C190.138 97.0403 189.53 97.1162 189.075 97.3439C188.62 97.5716 188.24 97.8752 188.013 98.2547C187.785 98.6342 187.633 99.0895 187.633 99.5449C187.633 100.076 187.785 100.532 188.088 100.835C188.392 101.139 188.696 101.367 189.151 101.518C189.53 101.67 189.986 101.822 190.593 101.974C191.048 102.126 191.352 102.201 191.58 102.277C191.807 102.353 191.959 102.429 192.111 102.581C192.187 102.657 192.263 102.809 192.263 102.96C192.263 103.416 192.111 103.947 190.593 103.947C189.834 103.947 189.151 103.795 188.544 103.492C188.24 103.34 187.937 103.416 187.709 103.644C187.557 103.795 187.481 103.947 187.481 104.175C187.481 104.327 187.557 104.478 187.633 104.63C187.709 104.782 187.861 104.858 187.937 104.934C188.772 105.313 189.682 105.465 190.669 105.465C191.276 105.465 191.807 105.389 192.263 105.161C192.718 104.934 193.098 104.706 193.325 104.327C193.629 103.947 193.705 103.568 193.705 103.036C193.705 102.505 193.553 102.05 193.25 101.67C193.022 101.367 192.718 101.063 192.263 100.911ZM200.46 103.795H197.12V97.7993C197.12 97.5716 197.045 97.4198 196.893 97.268C196.589 96.9644 196.134 96.9644 195.83 97.268C195.678 97.4198 195.602 97.5716 195.602 97.7993V104.327C195.602 104.554 195.678 104.782 195.906 105.01C196.134 105.237 196.286 105.313 196.589 105.313H200.536C200.764 105.313 200.915 105.237 201.067 105.086C201.219 104.934 201.295 104.782 201.295 104.554C201.295 104.327 201.219 104.175 201.067 104.023C200.839 103.871 200.688 103.795 200.46 103.795ZM207.974 98.5583C208.202 98.5583 208.353 98.4824 208.505 98.3306C208.657 98.1788 208.733 98.027 208.733 97.7993C208.733 97.5716 208.657 97.4198 208.505 97.268C208.353 97.1162 208.202 97.0403 207.974 97.0403H203.572C203.344 97.0403 203.192 97.1162 203.041 97.268C202.889 97.4198 202.813 97.5716 202.813 97.7993V104.478C202.813 104.706 202.889 104.858 203.041 105.01C203.192 105.161 203.344 105.237 203.572 105.237H207.974C208.202 105.237 208.353 105.161 208.505 105.01C208.657 104.858 208.733 104.706 208.733 104.478C208.733 104.251 208.657 104.099 208.505 103.947C208.353 103.795 208.202 103.719 207.974 103.719H204.331V101.822H207.594C207.822 101.822 207.974 101.746 208.126 101.594C208.278 101.442 208.353 101.291 208.353 101.063C208.353 100.835 208.278 100.683 208.126 100.532C207.974 100.38 207.822 100.304 207.594 100.304H204.331V98.4065H207.974V98.5583ZM215.867 97.1162H210.403C210.175 97.1162 210.023 97.1921 209.871 97.3439C209.72 97.4957 209.644 97.6475 209.644 97.8752C209.644 98.1029 209.72 98.2547 209.871 98.4065C210.023 98.5583 210.175 98.6342 210.403 98.6342H212.376V104.706C212.376 104.934 212.452 105.086 212.604 105.237C212.756 105.389 212.907 105.465 213.135 105.465C213.363 105.465 213.515 105.389 213.666 105.237C213.818 105.086 213.894 104.934 213.894 104.706V98.6342H215.867C216.095 98.6342 216.247 98.5583 216.399 98.4065C216.551 98.2547 216.626 98.1029 216.626 97.8752C216.626 97.6475 216.551 97.4957 216.399 97.3439C216.247 97.1921 216.095 97.1162 215.867 97.1162ZM223.457 97.1162H217.993C217.765 97.1162 217.613 97.1921 217.461 97.3439C217.31 97.4957 217.234 97.6475 217.234 97.8752C217.234 98.1029 217.31 98.2547 217.461 98.4065C217.613 98.5583 217.765 98.6342 217.993 98.6342H219.966V104.706C219.966 104.934 220.042 105.086 220.194 105.237C220.346 105.389 220.497 105.465 220.725 105.465C220.953 105.465 221.105 105.389 221.256 105.237C221.408 105.086 221.484 104.934 221.484 104.706V98.6342H223.457C223.685 98.6342 223.837 98.5583 223.989 98.4065C224.14 98.2547 224.216 98.1029 224.216 97.8752C224.216 97.6475 224.14 97.4957 223.989 97.3439C223.837 97.1921 223.609 97.1162 223.457 97.1162ZM230.82 98.5583C231.047 98.5583 231.199 98.4824 231.351 98.3306C231.503 98.1788 231.579 98.027 231.579 97.7993C231.579 97.5716 231.503 97.4198 231.351 97.268C231.199 97.1162 231.047 97.0403 230.82 97.0403H226.417C226.19 97.0403 226.038 97.1162 225.886 97.268C225.734 97.4198 225.658 97.5716 225.658 97.7993V104.478C225.658 104.706 225.734 104.858 225.886 105.01C226.038 105.161 226.19 105.237 226.417 105.237H230.82C231.047 105.237 231.199 105.161 231.351 105.01C231.503 104.858 231.579 104.706 231.579 104.478C231.579 104.251 231.503 104.099 231.351 103.947C231.199 103.795 231.047 103.719 230.82 103.719H227.176V101.822H230.44C230.668 101.822 230.82 101.746 230.971 101.594C231.123 101.442 231.199 101.291 231.199 101.063C231.199 100.835 231.123 100.683 230.971 100.532C230.82 100.38 230.668 100.304 230.44 100.304H227.176V98.4065H230.82V98.5583ZM239.017 101.594C239.32 101.442 239.472 101.215 239.7 100.987C240.003 100.608 240.079 100.152 240.079 99.6208C240.079 98.8619 239.776 98.2547 239.244 97.7993C238.713 97.3439 237.878 97.1162 236.816 97.1162H234.235C234.007 97.1162 233.856 97.1921 233.704 97.3439C233.552 97.4957 233.476 97.6475 233.476 97.8752V104.63C233.476 104.858 233.552 105.01 233.704 105.161C234.007 105.465 234.463 105.465 234.766 105.161C234.918 105.01 234.994 104.858 234.994 104.63V102.353H237.043C237.499 102.353 237.802 102.429 238.03 102.657C238.258 102.885 238.41 103.112 238.41 103.34C238.485 103.643 238.485 103.947 238.485 104.327V104.63C238.485 104.858 238.561 105.01 238.713 105.161C238.865 105.313 239.017 105.389 239.244 105.389C239.472 105.389 239.624 105.313 239.776 105.161C239.927 105.01 240.003 104.858 240.003 104.63V104.099C240.003 103.568 239.927 103.036 239.7 102.505C239.624 102.126 239.32 101.822 239.017 101.594ZM238.561 99.6967C238.561 100.076 238.41 100.304 238.106 100.532C237.802 100.759 237.347 100.835 236.74 100.835H234.994V98.5583H236.664C237.347 98.5583 237.878 98.6342 238.182 98.8619C238.485 99.0896 238.561 99.3172 238.561 99.6967Z" fill="white"/>
<path d="M256.095 133.168H142.854C141.639 133.168 140.729 132.182 140.729 131.043V124.895C140.729 123.681 141.715 122.77 142.854 122.77H256.095C257.31 122.77 258.22 123.757 258.22 124.895V131.043C258.296 132.182 257.31 133.168 256.095 133.168Z" fill="white"/>
<path d="M250.022 141.289H148.925V144.477H250.022V141.289Z" fill="white"/>
<path d="M250.022 151.308H185.887V154.496H250.022V151.308Z" fill="white"/>
<path d="M174.655 151.308H148.925V154.496H174.655V151.308Z" fill="white"/>
<path d="M224.369 161.327H148.925V164.515H224.369V161.327Z" fill="white"/>
<path d="M250.098 161.327H233.856V164.515H250.098V161.327Z" fill="white"/>
<path d="M245.241 171.345H207.898V174.533H245.241V171.345Z" fill="white"/>
<path d="M192.263 171.345H148.925V174.533H192.263V171.345Z" fill="white"/>
<path d="M77.4274 279.122V276.77H63.386C63.2342 281.323 62.8547 289.9 62.7029 289.9H85.5486C86.3835 282.386 77.4274 279.122 77.4274 279.122Z" fill="#6193F6"/>
<path d="M85.245 286.636C85.5486 287.623 85.7004 288.686 85.5486 289.9H62.7029C62.7788 289.9 62.8547 288.534 62.9306 286.636H85.245Z" fill="#060405"/>
<path d="M26.5758 279.122V276.77H12.5345C12.3827 281.323 12.0032 289.9 11.8514 289.9H34.697C35.5319 282.386 26.5758 279.122 26.5758 279.122Z" fill="#6193F6"/>
<path d="M34.3934 286.636C34.697 287.623 34.8488 288.686 34.697 289.9H11.8514C11.9273 289.9 12.0032 288.534 12.0791 286.636H34.3934ZM78.9462 278.287L71.2045 166.64L43.729 172.029L62.4761 278.287C62.552 279.502 78.9462 279.502 78.9462 278.287Z" fill="#060405"/>
<path d="M28.3215 279.198L57.0114 168.31L28.3215 169.6L11.8514 279.198C11.8514 280.261 28.3215 280.261 28.3215 279.198Z" fill="#060405"/>
<path d="M24.7536 118.216C27.8655 112.979 56.7071 109.867 64.5247 116.167C70.369 120.948 72.9495 179.011 72.9495 179.011C73.4049 184.779 23.2356 185.159 22.8561 179.391C22.8561 179.391 21.49 123.605 24.7536 118.216Z" fill="#FF7545"/>
<path d="M33.4823 193.963C26.1201 198.29 24.1467 187.284 24.1467 187.284C24.1467 187.284 -1.81075 163.756 0.618026 151.232C1.68061 145.767 8.73923 138.102 8.73923 138.102L19.2133 151.308L15.1147 155.862L29.5356 181.44C29.5356 181.44 34.0895 179.998 35.3039 181.82C36.5942 183.717 32.8751 183.565 32.8751 183.565C32.8751 183.565 40.8445 189.637 33.4823 193.963Z" fill="white"/>
<path d="M30.2942 195.33C29.6111 195.33 29.0039 195.178 28.3967 194.95C25.133 193.432 23.9946 188.423 23.7669 187.512C21.7935 185.69 -2.19062 163.528 0.162247 151.156C1.22483 145.692 8.13165 138.178 8.35935 137.874C8.43525 137.798 8.51114 137.722 8.66294 137.722C8.73884 137.722 8.89064 137.798 8.96654 137.874L19.4406 151.156C19.5924 151.308 19.5165 151.536 19.4406 151.612L15.5698 155.938L29.687 180.985C30.7496 180.681 34.3927 179.846 35.6071 181.592C36.0625 182.275 35.9866 182.73 35.8348 183.034C35.5312 183.641 34.6204 183.869 33.8614 183.945C34.9999 185.007 37.0492 187.36 36.8974 189.865C36.8215 191.611 35.683 193.129 33.5578 194.343C32.4953 194.95 31.3568 195.33 30.2942 195.33ZM8.66294 138.709C7.29676 140.227 1.83203 146.678 0.921238 151.308C-1.43163 163.452 24.0705 186.753 24.3741 186.981C24.45 187.057 24.45 187.133 24.5259 187.208C24.5259 187.284 25.5884 192.825 28.7003 194.267C29.9906 194.874 31.5845 194.647 33.2542 193.66C35.0758 192.597 36.0625 191.307 36.2143 189.789C36.442 186.753 32.723 183.869 32.723 183.869C32.5712 183.793 32.5712 183.565 32.5712 183.414C32.647 183.262 32.7988 183.186 32.9506 183.186C33.7096 183.186 34.9999 183.034 35.1517 182.655C35.2276 182.503 35.0758 182.199 34.9999 182.047C34.0891 180.681 30.8255 181.44 29.6111 181.82C29.4593 181.896 29.2316 181.82 29.1557 181.668L14.7349 156.09C14.659 155.938 14.659 155.786 14.8108 155.634L18.6816 151.308L8.66294 138.709Z" fill="#060405"/>
<path d="M28.701 115.56C28.701 115.56 21.4906 118.368 17.3921 122.466C14.1284 125.73 6.46259 137.646 6.46259 137.646C5.1723 138.861 18.3028 155.255 20.2003 153.357C20.2003 153.357 33.8622 138.861 34.7729 132.865C35.8355 125.199 28.701 115.56 28.701 115.56Z" fill="#FF7545"/>
<path d="M19.744 153.889C19.6681 153.889 19.5922 153.889 19.5163 153.889C16.6321 153.433 8.05551 142.807 6.38573 139.164C6.30983 139.012 6.38573 138.785 6.53753 138.633C6.76522 138.557 6.91702 138.633 7.06882 138.785C8.8145 142.504 17.2393 152.674 19.6681 153.13C19.8199 153.13 19.8958 153.13 19.8958 153.13C20.0476 152.978 33.4817 138.633 34.3166 132.865C34.3166 132.637 34.5443 132.485 34.772 132.561C34.9997 132.561 35.1515 132.789 35.0756 133.016C34.1648 139.012 20.9584 153.13 20.4271 153.737C20.2753 153.737 20.1235 153.889 19.744 153.889Z" fill="#060405"/>
<path d="M106.193 119.051C105.055 119.051 104.144 118.14 104.144 117.002V45.1253H108.242V117.002C108.242 118.064 107.332 119.051 106.193 119.051Z" fill="#060405"/>
<path d="M104.143 97.4959V106.072C104.143 106.072 103.08 139.772 91.3158 147.665C85.4715 151.536 70.4435 141.29 70.4435 141.29L80.3863 126.262L84.4849 129.677L99.8924 99.3934C99.8924 99.3934 101.41 88.3121 104.446 90.0578C107.482 91.8793 104.143 97.4959 104.143 97.4959Z" fill="white"/>
<path d="M87.9014 148.879C80.9946 148.879 70.7482 141.897 70.2169 141.593C70.0651 141.441 69.9892 141.214 70.141 141.062L80.0838 126.034C80.1597 125.958 80.2356 125.882 80.3115 125.882C80.3874 125.882 80.5392 125.882 80.6151 125.958L84.41 129.07L99.5139 99.3173C99.6657 98.1788 100.804 90.8166 103.157 89.6781C103.612 89.4504 104.144 89.4504 104.675 89.754C105.358 90.1335 105.814 90.7407 105.965 91.4997C106.573 93.7766 104.827 97.0403 104.523 97.5716V105.996C104.447 107.363 103.309 139.999 91.5445 147.893C90.4819 148.652 89.2676 148.879 87.9014 148.879ZM70.9759 141.138C73.177 142.58 86.0039 150.701 91.0891 147.285C102.55 139.696 103.764 106.376 103.764 105.996V97.4957C103.764 97.4198 103.764 97.3439 103.84 97.268C103.84 97.268 105.814 93.8525 105.282 91.6515C105.13 91.0443 104.827 90.6648 104.296 90.3612C103.992 90.2094 103.764 90.2094 103.537 90.2853C101.791 91.1202 100.652 97.1162 100.349 99.3932C100.349 99.4691 100.349 99.4691 100.349 99.545L84.9413 129.829C84.8654 129.905 84.7895 129.98 84.7136 130.056C84.5618 130.056 84.4859 130.056 84.41 129.981L80.6151 126.793L70.9759 141.138Z" fill="#060405"/>
<path d="M58.9852 113.738C58.9852 113.738 65.5125 115.56 71.7362 119.203C76.8974 122.239 82.8934 126.641 82.8934 126.641C82.9693 129.905 75.3794 147.058 74.165 146.451L60.9586 137.267L58.9852 113.738Z" fill="#FF7545"/>
<path d="M70.4451 144.477C70.2174 144.477 70.0656 144.325 70.0656 144.174L68.7753 133.092C68.7753 132.865 68.9271 132.713 69.0789 132.637C69.3066 132.637 69.4584 132.789 69.5343 132.941L70.8246 144.022C70.8246 144.25 70.6728 144.477 70.4451 144.477Z" fill="#060405"/>
<path d="M49.4955 105.01C49.4955 105.01 49.4196 110.247 52.6074 112.827C53.67 115.332 50.634 124.819 36.5927 113.966C36.5927 113.966 37.6553 98.4064 39.0215 95.5982C40.4635 92.7899 49.4955 105.01 49.4955 105.01Z" fill="white"/>
<path d="M36.3651 114.27L36.2133 114.118V113.89C36.2892 113.283 37.2759 98.179 38.718 95.3707C38.8698 94.9912 39.1734 94.7635 39.6287 94.7635C42.0575 94.5358 48.433 102.885 49.951 104.782C49.951 107.363 50.8618 110.702 52.9111 112.448L52.987 112.524V112.6C53.5942 113.89 53.1388 116.622 51.1654 118.216C47.1428 121.404 40.4636 117.381 36.3651 114.27ZM37.0482 113.814C45.2453 120.114 49.1161 118.899 50.71 117.685C52.4557 116.319 52.6834 113.966 52.3798 113.055C49.4197 110.626 49.192 105.997 49.192 105.162C46.3838 101.367 41.4503 95.5984 39.7805 95.5984H39.7046C39.6287 95.5984 39.5528 95.6743 39.4769 95.8261C38.1867 98.2549 37.1241 111.993 37.0482 113.814Z" fill="#060405"/>
<path d="M37.9586 98.5584C39.6283 102.505 47.3701 108.881 53.3661 105.693C61.2596 101.594 63.8402 78.8246 53.6697 74.3466C47.2183 71.5383 34.7708 91.0444 37.9586 98.5584Z" fill="white"/>
<path d="M49.8754 106.983C48.7369 106.983 47.5226 106.756 46.3082 106.3C42.2855 104.858 38.7183 101.291 37.5798 98.7102C35.3787 93.4732 40.2362 82.9232 45.9287 77.2308C48.8887 74.2707 51.697 73.1322 53.8222 74.043C57.9207 75.8646 60.4254 80.798 60.6531 87.5531C60.8808 94.6117 58.452 103.416 53.5186 106.072C52.456 106.68 51.1657 106.983 49.8754 106.983ZM52.3042 74.4984C50.6344 74.4984 48.661 75.6369 46.46 77.7621C41.0711 83.1509 36.2136 93.5491 38.2629 98.4066C39.2496 100.759 42.7409 104.251 46.5359 105.541C48.9646 106.376 51.2416 106.376 53.1391 105.313C57.1617 103.188 60.1218 95.3707 59.8941 87.5531C59.6664 81.1016 57.3135 76.3959 53.5186 74.7261C53.215 74.5743 52.7596 74.4984 52.3042 74.4984Z" fill="#060405"/>
<path d="M36.8961 79.7352C36.8961 79.7352 31.8108 74.3464 26.2702 74.5741C20.7296 74.8777 20.2742 80.4183 20.2742 80.4183C20.2742 80.4183 14.9612 76.4716 11.394 81.1773C7.75082 85.883 14.2022 90.9683 14.2022 90.9683C14.2022 90.9683 9.72419 93.6247 10.9386 99.5449C12.2289 105.465 20.5019 107.135 20.5778 98.6341C20.5778 98.6341 25.2076 100.987 27.7882 93.9284C27.7882 93.9284 33.1011 96.8125 37.4274 92.0309C41.7536 87.1733 36.8961 79.7352 36.8961 79.7352Z" fill="#060405"/>
<path d="M38.415 99.4689C38.415 99.4689 39.0222 89.0707 45.0942 86.9455C51.1661 84.8203 52.76 80.9495 52.76 78.1412C52.4564 79.4315 59.8186 83.0747 60.3499 89.5261C60.3499 89.5261 64.3725 82.847 59.1355 75.1053C55.4923 69.7164 50.5589 70.0959 50.5589 70.0959C50.5589 70.0959 44.0316 63.6445 35.6827 73.5873C28.4722 82.0121 36.2899 97.4196 38.415 99.4689Z" fill="#060405"/>
<path d="M47.9984 93.0041C48.5808 92.9319 48.9777 92.2663 48.8848 91.5175C48.792 90.7687 48.2446 90.2203 47.6622 90.2925C47.0798 90.3647 46.683 91.0302 46.7758 91.779C46.8687 92.5278 47.416 93.0763 47.9984 93.0041Z" fill="#060405"/>
<path d="M55.518 91.8654C56.1004 91.7932 56.4973 91.1276 56.4044 90.3788C56.3116 89.63 55.7642 89.0816 55.1818 89.1538C54.5994 89.226 54.2026 89.8915 54.2954 90.6403C54.3882 91.3891 54.9356 91.9376 55.518 91.8654Z" fill="#060405"/>
<path d="M52.0773 97.3441L51.546 96.7369C51.8496 96.4333 52.1532 96.2056 52.3809 95.8261C52.5327 95.5984 52.5327 95.143 52.3809 94.9153C52.2291 94.7635 51.8496 94.6117 51.6219 94.3081C51.2424 93.9286 51.1665 93.3973 51.1665 93.0178L50.787 90.2855L51.546 90.2096L51.9255 92.9419C52.0014 93.3214 52.0014 93.625 52.2291 93.7768C52.3809 93.9286 52.7604 94.0804 52.9881 94.384C53.4435 94.9153 53.3676 95.5984 53.1399 96.1297C52.8363 96.661 52.3809 97.0405 52.0773 97.3441Z" fill="#060405"/>
<path d="M48.6631 101.518L49.1944 100.987C49.8016 101.594 50.7883 101.822 51.5473 101.518L51.8509 102.201C50.7883 102.657 49.4221 102.353 48.6631 101.518Z" fill="#060405"/>
<path d="M35.1519 94.5354C35.0001 94.5354 34.9242 94.4595 34.8483 94.3836C31.2811 88.9948 30.6739 82.088 33.1786 76.2438C33.2545 76.092 33.4822 76.0161 33.634 76.092C33.7858 76.1679 33.8617 76.3955 33.7858 76.5473C31.357 82.1639 31.9642 88.843 35.3796 94.0041C35.4555 94.1559 35.4555 94.3836 35.3037 94.4595C35.3037 94.5354 35.2278 94.5354 35.1519 94.5354Z" fill="#FF7545"/>
<path d="M199.472 47.3264H98.3748C95.1111 47.3264 92.4547 44.67 92.4547 41.4063V17.2704C92.4547 14.0067 95.1111 11.3503 98.3748 11.3503H199.396C202.66 11.3503 205.317 14.0067 205.317 17.2704V41.4822C205.317 44.67 202.66 47.3264 199.472 47.3264Z" fill="white"/>
<path d="M199.472 47.706H98.3749C94.8835 47.706 92.0753 44.8978 92.0753 41.4064V17.2705C92.0753 13.7791 94.8835 10.9709 98.3749 10.9709H199.397C202.888 10.9709 205.696 13.7791 205.696 17.2705V41.4823C205.696 44.8978 202.888 47.706 199.472 47.706ZM98.3749 11.7299C95.3389 11.7299 92.8343 14.2345 92.8343 17.2705V41.4823C92.8343 44.5183 95.3389 47.0229 98.3749 47.0229H199.397C202.433 47.0229 204.937 44.5183 204.937 41.4823V17.2705C204.937 14.2345 202.433 11.7299 199.397 11.7299H98.3749Z" fill="#060405"/>
<path d="M109.533 107.59C106.422 107.59 103.917 105.01 103.917 101.822C103.917 98.6341 106.422 96.0535 109.533 96.0535C112.645 95.9776 112.645 107.59 109.533 107.59Z" fill="white"/>
<path d="M109.534 107.97C106.194 107.97 103.538 105.237 103.538 101.822C103.538 98.4066 106.194 95.6742 109.534 95.6742C111.431 95.6742 112.266 98.7861 112.266 101.822C112.266 104.858 111.431 107.97 109.534 107.97ZM109.534 96.3573C106.649 96.3573 104.296 98.7861 104.296 101.746C104.296 104.706 106.649 107.135 109.534 107.135C110.293 107.135 110.748 106.148 110.9 105.541C111.279 104.554 111.431 103.112 111.431 101.67C111.507 98.7102 110.672 96.3573 109.534 96.3573Z" fill="#060405"/>
<path d="M109.382 28.7312C108.927 28.5035 108.243 28.3517 107.484 28.124C106.877 27.9722 106.422 27.8963 106.118 27.7445C105.815 27.6686 105.587 27.5168 105.359 27.2891C105.207 27.1373 105.132 26.9855 105.132 26.6819C105.132 26.3024 105.283 25.9988 105.663 25.7711C106.118 25.5434 106.65 25.3916 107.333 25.3916C108.092 25.3916 108.851 25.5434 109.534 25.7711C109.686 25.847 109.837 25.847 109.913 25.847C110.217 25.847 110.444 25.7711 110.596 25.5434C110.748 25.3157 110.824 25.088 110.824 24.8603C110.824 24.405 110.596 24.1014 110.141 23.9496C109.23 23.646 108.168 23.4183 107.105 23.4183C106.27 23.4183 105.511 23.5701 104.904 23.8737C104.297 24.1773 103.765 24.5568 103.462 25.088C103.158 25.6193 102.93 26.1506 102.93 26.8337C102.93 27.5927 103.158 28.1999 103.538 28.6553C103.917 29.1107 104.373 29.4143 104.904 29.642C105.435 29.8697 106.042 30.0215 106.877 30.2492C107.484 30.401 107.94 30.5528 108.243 30.6287C108.547 30.7046 108.775 30.8564 108.927 31.0082C109.078 31.16 109.154 31.3118 109.154 31.4636C109.154 31.8431 109.154 32.7538 106.953 32.7538C105.966 32.7538 105.056 32.5262 104.221 32.1467C103.841 31.9949 103.386 32.0708 103.082 32.3744C102.93 32.6021 102.779 32.8297 102.779 33.0574C102.779 33.2851 102.855 33.4369 102.93 33.6646C103.082 33.8164 103.234 33.9682 103.386 34.0441C104.524 34.4995 105.739 34.8031 107.029 34.8031C107.788 34.8031 108.547 34.6513 109.154 34.4236C109.761 34.12 110.293 33.7405 110.596 33.2851C110.976 32.7539 111.128 32.2226 111.128 31.6154C111.128 30.8564 110.9 30.2492 110.52 29.7938C110.369 29.2625 109.913 28.9589 109.382 28.7312ZM121.07 23.8737C120.843 24.1014 120.767 24.3291 120.767 24.6327V30.4769C120.767 31.0082 120.615 31.3877 120.387 31.7672C120.16 32.1467 119.856 32.3744 119.476 32.5262C118.718 32.9057 117.731 32.9057 116.972 32.5262C116.592 32.3744 116.289 32.0708 116.061 31.7672C115.833 31.3877 115.682 31.0082 115.682 30.4769V24.6327C115.682 24.3291 115.606 24.1014 115.378 23.8737C114.998 23.4942 114.315 23.4942 113.86 23.8737C113.632 24.1014 113.556 24.3291 113.556 24.6327V30.401C113.556 31.3118 113.784 32.1467 114.239 32.8298C114.695 33.5128 115.302 33.9682 115.985 34.2718C116.668 34.5754 117.427 34.7272 118.186 34.7272C118.945 34.7272 119.628 34.5754 120.387 34.2718C121.07 33.9682 121.678 33.4369 122.133 32.8298C122.588 32.1467 122.816 31.3877 122.816 30.401V24.6327C122.816 24.3291 122.74 24.1014 122.512 23.8737C122.133 23.4183 121.45 23.4183 121.07 23.8737ZM133.138 28.883C133.366 28.7312 133.518 28.5035 133.67 28.3517C133.973 27.8963 134.125 27.365 134.125 26.6819C134.125 25.7711 133.821 25.0121 133.138 24.4809C132.531 23.9496 131.62 23.646 130.482 23.646H126.991C126.687 23.646 126.459 23.7219 126.232 23.9496C126.004 24.1773 125.928 24.405 125.928 24.7085V33.5887C125.928 33.8923 126.004 34.12 126.232 34.3477C126.459 34.5754 126.687 34.6513 126.991 34.6513H130.558C132 34.6513 132.987 34.3477 133.67 33.8164C134.353 33.2092 134.732 32.4503 134.732 31.3877C134.732 30.6287 134.505 30.0215 134.049 29.5661C133.821 29.2625 133.518 29.0348 133.138 28.883ZM132.683 31.3118C132.683 31.7672 132.531 32.0708 132.228 32.2226C132 32.3744 131.544 32.6021 130.406 32.6021H128.053V30.0215H130.406C132.683 30.0215 132.683 30.9323 132.683 31.3118ZM128.053 28.0481V25.6193H130.33C130.937 25.6193 131.317 25.7711 131.62 25.9229C131.924 26.1506 132 26.3783 132 26.6819C132 27.0614 131.848 27.4409 131.62 27.5927C131.393 27.7445 131.013 27.9722 130.026 27.9722H128.053V28.0481ZM143.005 28.7312C142.55 28.5035 141.867 28.3517 141.108 28.124C140.501 27.9722 140.045 27.8963 139.742 27.7445C139.438 27.6686 139.21 27.5168 138.983 27.2891C138.831 27.1373 138.755 26.9855 138.755 26.6819C138.755 26.3024 138.907 25.9988 139.286 25.7711C139.742 25.5434 140.273 25.3916 140.956 25.3916C141.715 25.3916 142.474 25.5434 143.157 25.7711C143.309 25.847 143.461 25.847 143.537 25.847C143.84 25.847 144.068 25.7711 144.22 25.5434C144.371 25.3157 144.447 25.088 144.447 24.8603C144.447 24.405 144.22 24.1014 143.764 23.9496C142.853 23.646 141.791 23.4183 140.728 23.4183C139.893 23.4183 139.134 23.5701 138.527 23.8737C137.92 24.1773 137.389 24.5568 137.085 25.088C136.781 25.6193 136.554 26.1506 136.554 26.8337C136.554 27.5927 136.781 28.1999 137.161 28.6553C137.54 29.1107 137.996 29.4143 138.527 29.642C139.058 29.8697 139.666 30.0215 140.501 30.2492C141.108 30.401 141.563 30.5528 141.867 30.6287C142.17 30.7046 142.398 30.8564 142.55 31.0082C142.702 31.16 142.778 31.3118 142.778 31.4636C142.778 31.8431 142.778 32.7538 140.576 32.7538C139.59 32.7538 138.679 32.5262 137.844 32.1467C137.465 31.9949 137.009 32.0708 136.706 32.3744C136.554 32.6021 136.402 32.8297 136.402 33.0574C136.402 33.2851 136.478 33.4369 136.554 33.6646C136.706 33.8164 136.857 33.9682 137.009 34.0441C138.148 34.4995 139.362 34.8031 140.652 34.8031C141.411 34.8031 142.17 34.6513 142.778 34.4236C143.385 34.12 143.916 33.7405 144.22 33.2851C144.599 32.7539 144.751 32.2226 144.751 31.6154C144.751 30.8564 144.523 30.2492 144.144 29.7938C143.992 29.2625 143.537 28.9589 143.005 28.7312ZM150.443 25.9988C150.975 25.6952 151.658 25.5434 152.417 25.5434C152.948 25.5434 153.327 25.6193 153.707 25.6952C154.086 25.7711 154.466 25.9988 154.921 26.1506C155.301 26.3024 155.756 26.2265 156.06 25.9988C156.212 25.847 156.363 25.6193 156.363 25.3157C156.363 24.9362 156.212 24.6326 155.832 24.405C155.301 24.1014 154.77 23.8737 154.162 23.7219C153.631 23.5701 152.948 23.4942 152.265 23.4942C151.202 23.4942 150.292 23.7219 149.457 24.1773C148.622 24.6327 147.939 25.3157 147.483 26.1506C147.028 26.9855 146.8 27.9722 146.8 29.1107C146.8 30.2492 147.028 31.2359 147.483 32.0708C147.939 32.9057 148.622 33.5887 149.457 34.0441C150.292 34.4995 151.202 34.7272 152.265 34.7272C152.948 34.7272 153.631 34.6513 154.162 34.4995C154.694 34.3477 155.225 34.12 155.832 33.8164C156.136 33.6646 156.363 33.2851 156.363 32.9057C156.363 32.678 156.288 32.4503 156.06 32.2226C155.756 31.919 155.301 31.8431 154.921 32.0708C154.542 32.2985 154.086 32.4503 153.707 32.5262C153.327 32.6021 152.872 32.678 152.417 32.678C151.658 32.678 150.975 32.5262 150.443 32.2226C149.912 31.919 149.533 31.4636 149.229 30.9323C148.925 30.401 148.849 29.7179 148.849 29.0348C148.849 28.3517 149.001 27.6686 149.229 27.1373C149.533 26.6819 149.912 26.3024 150.443 25.9988ZM166.989 28.8071C167.369 28.2758 167.521 27.6686 167.521 26.9855C167.521 25.9988 167.141 25.1639 166.382 24.5568C165.623 23.9496 164.561 23.646 163.118 23.646H159.703C159.399 23.646 159.172 23.7219 158.944 23.9496C158.716 24.1773 158.64 24.405 158.64 24.7085V33.6646C158.64 33.9682 158.716 34.1959 158.944 34.4236C159.324 34.8031 160.007 34.8031 160.386 34.4236C160.614 34.1959 160.69 33.9682 160.69 33.6646V30.6287H163.346C163.953 30.6287 164.333 30.7805 164.561 31.0082C164.864 31.3118 165.016 31.6154 165.092 31.919C165.168 32.2985 165.244 32.7539 165.244 33.2092V33.6646C165.244 33.9682 165.32 34.1959 165.547 34.4236C165.775 34.6513 166.003 34.7272 166.306 34.7272C166.61 34.7272 166.838 34.6513 167.065 34.4236C167.293 34.1959 167.369 33.9682 167.369 33.6646V32.9815C167.369 32.2985 167.217 31.5395 166.989 30.7805C166.762 30.2492 166.458 29.8697 166.079 29.5661C166.458 29.4143 166.762 29.1107 166.989 28.8071ZM165.471 27.0614C165.471 27.5168 165.32 27.8963 164.864 28.124C164.409 28.4276 163.802 28.5794 163.043 28.5794H160.766V25.6193H162.967C164.105 25.6193 164.712 25.847 164.94 25.9988C165.32 26.3024 165.471 26.606 165.471 27.0614ZM170.557 23.8737C170.329 24.1014 170.253 24.3291 170.253 24.6327V33.6646C170.253 33.9682 170.329 34.1959 170.557 34.4236C170.784 34.6513 171.012 34.7272 171.316 34.7272C171.619 34.7272 171.847 34.6513 172.075 34.4236C172.302 34.1959 172.378 33.9682 172.378 33.6646V24.6327C172.378 24.3291 172.302 24.1014 172.075 23.8737C171.695 23.4183 170.936 23.4183 170.557 23.8737ZM182.776 28.883C183.004 28.7312 183.156 28.5035 183.308 28.3517C183.611 27.8963 183.763 27.365 183.763 26.6819C183.763 25.7711 183.459 25.0121 182.776 24.4809C182.169 23.9496 181.258 23.646 180.12 23.646H176.628C176.325 23.646 176.097 23.7219 175.87 23.9496C175.642 24.1773 175.566 24.405 175.566 24.7085V33.5887C175.566 33.8923 175.642 34.12 175.87 34.3477C176.097 34.5754 176.325 34.6513 176.628 34.6513H180.196C181.638 34.6513 182.625 34.3477 183.308 33.8164C183.991 33.2092 184.37 32.4503 184.37 31.3877C184.37 30.6287 184.143 30.0215 183.687 29.5661C183.384 29.2625 183.08 29.0348 182.776 28.883ZM182.245 31.3118C182.245 31.7672 182.093 32.0708 181.79 32.2226C181.562 32.3744 181.107 32.6021 179.968 32.6021H177.615V30.0215H179.968C182.245 30.0215 182.245 30.9323 182.245 31.3118ZM177.691 28.0481V25.6193H179.968C180.575 25.6193 180.955 25.7711 181.258 25.9229C181.562 26.1506 181.638 26.3783 181.638 26.6819C181.638 27.0614 181.486 27.4409 181.258 27.5927C181.031 27.7445 180.651 27.9722 179.664 27.9722H177.691V28.0481ZM193.782 32.6021H188.924V30.0974H193.25C193.554 30.0974 193.782 30.0215 193.933 29.7938C194.161 29.642 194.237 29.3384 194.237 29.1107C194.237 28.8071 194.161 28.5794 193.933 28.4276C193.706 28.1999 193.478 28.124 193.25 28.124H188.924V25.6193H193.782C194.085 25.6193 194.313 25.5434 194.465 25.3157C194.692 25.1639 194.768 24.8603 194.768 24.6327C194.768 24.3291 194.692 24.1014 194.465 23.9496C194.237 23.7219 194.009 23.646 193.782 23.646H187.862C187.558 23.646 187.33 23.7219 187.103 23.9496C186.875 24.1773 186.799 24.405 186.799 24.7085V33.5887C186.799 33.8923 186.875 34.12 187.103 34.3477C187.33 34.5754 187.558 34.6513 187.862 34.6513H193.782C194.085 34.6513 194.313 34.5754 194.465 34.3477C194.692 34.1959 194.768 33.8923 194.768 33.6646C194.768 33.361 194.692 33.1333 194.465 32.9815C194.313 32.7539 194.085 32.6021 193.782 32.6021Z" fill="#FF7545"/>
<path d="M288.048 60.533C283.114 62.1269 278.029 61.292 274.006 58.7115L276.511 55.3719C276.435 55.296 275.221 54.4611 275.296 54.4611L272.792 57.8766C270.211 55.9032 268.162 53.0949 267.099 49.7554C264.291 41.027 269.149 31.6155 277.877 28.8831C286.605 26.0748 296.017 30.9324 298.749 39.6608C301.633 48.3892 296.776 57.7248 288.048 60.533Z" fill="#060405"/>
<path d="M265.884 64.8594L266.947 65.6943L275.675 54.0059L274.537 53.171L265.884 64.8594Z" fill="#060405"/>
<path d="M290.249 51.6527C290.78 51.6527 291.084 51.0455 290.856 50.5901C290.097 49.0721 289.641 47.4023 289.641 45.7325C289.641 45.5807 289.641 45.5048 289.641 45.353L289.793 42.2412C289.945 38.598 286.985 35.562 283.418 35.562C279.85 35.562 277.042 38.4462 277.042 41.9376C277.042 42.0135 277.042 42.0894 277.042 42.1653L277.194 45.2771C277.27 47.0987 276.815 48.9203 275.98 50.5142C275.752 50.9696 276.056 51.5768 276.587 51.5768H290.249V51.6527Z" fill="white"/>
<path d="M285.62 52.4875V52.5634C285.62 53.7019 284.633 54.6885 283.494 54.6885C282.356 54.6885 281.369 53.7019 281.369 52.5634V52.4875H285.62Z" fill="white"/>
<path d="M281.899 34.5754V34.6513C282.431 34.4995 282.962 34.4236 283.493 34.4236C284.024 34.4236 284.556 34.4995 285.087 34.6513V34.5754C285.087 33.7405 284.404 32.9815 283.493 32.9815C283.038 32.9815 282.658 33.1333 282.355 33.4369C282.051 33.7405 281.899 34.12 281.899 34.5754Z" fill="white"/>
<path d="M243.191 47.0228H216.551C216.399 47.0228 216.247 46.871 216.247 46.7192C216.247 46.5674 216.399 46.4156 216.551 46.4156H243.191C243.343 46.4156 243.495 46.5674 243.495 46.7192C243.495 46.871 243.343 47.0228 243.191 47.0228ZM243.191 60.2292H216.551C216.399 60.2292 216.247 60.0774 216.247 59.9256C216.247 59.7738 216.399 59.622 216.551 59.622H243.191C243.343 59.622 243.495 59.7738 243.495 59.9256C243.495 60.0774 243.343 60.2292 243.191 60.2292ZM238.334 53.626H200.612C200.46 53.626 200.308 53.4742 200.308 53.3224C200.308 53.1706 200.46 53.0188 200.612 53.0188H238.334C238.486 53.0188 238.637 53.1706 238.637 53.3224C238.637 53.4742 238.486 53.626 238.334 53.626Z" fill="#C6E2FA"/>
<path d="M222.015 47.0226C221.863 47.0226 221.711 46.8708 221.711 46.719V41.1025C221.711 40.9507 221.863 40.7989 222.015 40.7989C222.167 40.7989 222.319 40.9507 222.319 41.1025V46.719C222.319 46.9467 222.167 47.0226 222.015 47.0226ZM231.35 53.6258C231.199 53.6258 231.047 53.474 231.047 53.3222V46.719C231.047 46.5672 231.199 46.4154 231.35 46.4154C231.502 46.4154 231.654 46.5672 231.654 46.719V53.3222C231.654 53.5499 231.578 53.6258 231.35 53.6258ZM224.292 60.0772C224.14 60.0772 223.988 59.9254 223.988 59.7736V53.3981C223.988 53.2463 224.14 53.0945 224.292 53.0945C224.444 53.0945 224.595 53.2463 224.595 53.3981V59.7736C224.52 59.9254 224.444 60.0772 224.292 60.0772Z" fill="#C6E2FA"/>
<path d="M370.17 243.298H343.529C343.377 243.298 343.225 243.146 343.225 242.994C343.225 242.843 343.377 242.691 343.529 242.691H370.17C370.321 242.691 370.473 242.843 370.473 242.994C370.473 243.146 370.321 243.298 370.17 243.298ZM370.17 256.504H343.529C343.377 256.504 343.225 256.353 343.225 256.201C343.225 256.049 343.377 255.897 343.529 255.897H370.17C370.321 255.897 370.473 256.049 370.473 256.201C370.473 256.353 370.321 256.504 370.17 256.504ZM365.312 249.901H327.59C327.438 249.901 327.287 249.749 327.287 249.598C327.287 249.446 327.438 249.294 327.59 249.294H365.312C365.464 249.294 365.616 249.446 365.616 249.598C365.616 249.749 365.54 249.901 365.312 249.901Z" fill="#C6E2FA"/>
<path d="M348.993 243.298C348.841 243.298 348.69 243.146 348.69 242.994V237.378C348.69 237.226 348.841 237.074 348.993 237.074C349.145 237.074 349.297 237.226 349.297 237.378V242.994C349.297 243.146 349.221 243.298 348.993 243.298ZM358.405 249.901C358.253 249.901 358.101 249.749 358.101 249.597V242.994C358.101 242.842 358.253 242.691 358.405 242.691C358.556 242.691 358.708 242.842 358.708 242.994V249.597C358.708 249.749 358.556 249.901 358.405 249.901ZM351.27 256.277C351.118 256.277 350.967 256.125 350.967 255.973V249.597C350.967 249.446 351.118 249.294 351.27 249.294C351.422 249.294 351.574 249.446 351.574 249.597V255.973C351.574 256.201 351.422 256.277 351.27 256.277Z" fill="#C6E2FA"/>
<path d="M95.7958 48.1615H69.1552C69.0034 48.1615 68.8516 48.0097 68.8516 47.8579C68.8516 47.7061 69.0034 47.5543 69.1552 47.5543H95.7958C95.9476 47.5543 96.0994 47.7061 96.0994 47.8579C96.0994 48.0097 95.9476 48.1615 95.7958 48.1615ZM95.7958 61.3679H69.1552C69.0034 61.3679 68.8516 61.2161 68.8516 61.0643C68.8516 60.9125 69.0034 60.7607 69.1552 60.7607H95.7958C95.9476 60.7607 96.0994 60.9125 96.0994 61.0643C96.0994 61.2161 95.9476 61.3679 95.7958 61.3679ZM90.9383 54.7647H53.2164C53.0646 54.7647 52.9128 54.6129 52.9128 54.4611C52.9128 54.3093 53.0646 54.1575 53.2164 54.1575H90.9383C91.0901 54.1575 91.2419 54.3093 91.2419 54.4611C91.2419 54.6129 91.0901 54.7647 90.9383 54.7647Z" fill="#C6E2FA"/>
<path d="M74.6194 48.1613C74.4676 48.1613 74.3158 48.0095 74.3158 47.8577V42.2412C74.3158 42.0894 74.4676 41.9376 74.6194 41.9376C74.7712 41.9376 74.9229 42.0894 74.9229 42.2412V47.8577C74.9229 48.0854 74.7712 48.1613 74.6194 48.1613ZM84.0308 54.7645C83.879 54.7645 83.7272 54.6127 83.7272 54.4609V47.8577C83.7272 47.7059 83.879 47.5541 84.0308 47.5541C84.1826 47.5541 84.3344 47.7059 84.3344 47.8577V54.4609C84.2585 54.6886 84.1826 54.7645 84.0308 54.7645ZM76.8963 61.2159C76.7445 61.2159 76.5927 61.0641 76.5927 60.9123V54.5368C76.5927 54.385 76.7445 54.2332 76.8963 54.2332C77.0481 54.2332 77.1999 54.385 77.1999 54.5368V60.9123C77.124 61.0641 77.0481 61.2159 76.8963 61.2159Z" fill="#C6E2FA"/>
</svg>
