<svg width="45" height="34" viewBox="0 0 45 34" fill="none" xmlns="http://www.w3.org/2000/svg">
<path fill-rule="evenodd" clip-rule="evenodd" d="M7.86499 23.1296H4.86989C4.66493 23.1296 4.49062 23.2744 4.45865 23.471L3.24728 30.938C3.22321 31.0854 3.34057 31.2182 3.4943 31.2182H4.92418C5.12914 31.2182 5.30346 31.0734 5.33542 30.8764L5.66214 28.8624C5.69366 28.6652 5.8684 28.5206 6.07293 28.5206H7.02108C8.99405 28.5206 10.1326 27.5923 10.4302 25.753C10.5641 24.9482 10.4358 24.3159 10.0481 23.873C9.62253 23.3869 8.86739 23.1296 7.86499 23.1296ZM8.21054 25.8568C8.04678 26.9017 7.22561 26.9017 6.43161 26.9017H5.97964L6.29672 24.9502C6.31555 24.8324 6.42065 24.7455 6.54328 24.7455H6.75043C7.29129 24.7455 7.80155 24.7455 8.06523 25.0452C8.22229 25.2241 8.27053 25.4897 8.21054 25.8568ZM16.8181 25.8233H15.3838C15.2616 25.8233 15.156 25.9102 15.1371 26.0282L15.0737 26.4182L14.9734 26.2769C14.6629 25.8387 13.9706 25.6923 13.2795 25.6923C11.6944 25.6923 10.3408 26.8593 10.0771 28.4965C9.94011 29.3131 10.1349 30.0939 10.6114 30.6385C11.0485 31.1392 11.6739 31.3479 12.4179 31.3479C13.695 31.3479 14.4033 30.5495 14.4033 30.5495L14.3392 30.9371C14.3151 31.0852 14.4325 31.218 14.5853 31.218H15.8773C16.0828 31.218 16.2561 31.0732 16.2885 30.8762L17.0637 26.1035C17.0882 25.9567 16.9713 25.8233 16.8181 25.8233ZM14.8188 28.5373C14.6803 29.3339 14.03 29.8687 13.2006 29.8687C12.7842 29.8687 12.4512 29.7389 12.2376 29.4928C12.0256 29.2484 11.9449 28.9005 12.0124 28.5131C12.1417 27.7231 12.803 27.171 13.6198 27.171C14.0269 27.171 14.3581 27.3025 14.5762 27.5507C14.7946 27.8016 14.8814 28.1515 14.8188 28.5373ZM23.0155 25.8231H24.4569C24.6587 25.8231 24.7765 26.0432 24.6618 26.2042L19.868 32.9315C19.7904 33.0404 19.6625 33.1053 19.5259 33.1053H18.0864C17.8837 33.1053 17.7654 32.8834 17.8827 32.722L19.3754 30.6736L17.7878 26.1441C17.7329 25.9866 17.8525 25.8231 18.0248 25.8231H19.441C19.625 25.8231 19.7874 25.9405 19.8405 26.1118L20.683 28.8475L22.671 26.0006C22.7488 25.8895 22.8781 25.8231 23.0155 25.8231Z" fill="#253B80"/>
<path fill-rule="evenodd" clip-rule="evenodd" d="M38.6421 30.938L39.8713 23.3345C39.8902 23.2164 39.9954 23.1295 40.1176 23.1292H41.5014C41.6542 23.1292 41.7716 23.2623 41.7474 23.4097L40.5353 30.8763C40.5037 31.0734 40.3294 31.2182 40.1241 31.2182H38.8882C38.7354 31.2182 38.618 31.0854 38.6421 30.938ZM29.2284 23.1295H26.2327C26.0282 23.1295 25.8539 23.2744 25.8219 23.471L24.6106 30.938C24.5865 31.0854 24.7038 31.2182 24.8568 31.2182H26.3939C26.5367 31.2182 26.6589 31.1169 26.6812 30.979L27.025 28.8624C27.0566 28.6652 27.2313 28.5205 27.4358 28.5205H28.3835C30.3568 28.5205 31.4952 27.5923 31.793 25.7529C31.9273 24.9482 31.7982 24.3159 31.4107 23.873C30.9853 23.3869 30.2308 23.1295 29.2284 23.1295ZM29.5739 25.8568C29.4106 26.9017 28.5894 26.9017 27.7949 26.9017H27.3434L27.6609 24.9502C27.6798 24.8324 27.784 24.7455 27.907 24.7455H28.1141C28.6546 24.7455 29.1654 24.7455 29.4288 25.0452C29.5861 25.2241 29.6339 25.4897 29.5739 25.8568ZM38.1807 25.8233H36.7474C36.6242 25.8233 36.5196 25.9102 36.5011 26.0282L36.4377 26.4181L36.337 26.2768C36.0265 25.8386 35.3346 25.6922 34.6435 25.6922C33.0584 25.6922 31.7052 26.8593 31.4415 28.4965C31.3049 29.313 31.4989 30.0939 31.9754 30.6385C32.4133 31.1392 33.0379 31.3478 33.7819 31.3478C35.059 31.3478 35.7671 30.5494 35.7671 30.5494L35.7032 30.937C35.6791 31.0852 35.7965 31.218 35.9503 31.218H37.2417C37.4462 31.218 37.6205 31.0732 37.6525 30.8761L38.4281 26.1035C38.4518 25.9567 38.3345 25.8233 38.1807 25.8233ZM36.1815 28.5373C36.0439 29.3339 35.3928 29.8687 34.5632 29.8687C34.1476 29.8687 33.814 29.7388 33.6001 29.4927C33.3882 29.2484 33.3085 28.9004 33.3752 28.513C33.5051 27.7231 34.1656 27.171 34.9824 27.171C35.3897 27.171 35.7207 27.3024 35.9389 27.5507C36.1582 27.8015 36.245 28.1515 36.1815 28.5373Z" fill="#179BD7"/>
<path d="M18.9496 20.4583L19.3178 18.1844L18.4976 18.1659H14.5811L17.3029 1.38683C17.3112 1.33617 17.3388 1.28894 17.3789 1.2554C17.419 1.22187 17.4705 1.20338 17.524 1.20338H24.128C26.3204 1.20338 27.8334 1.64694 28.6234 2.5224C28.9936 2.93311 29.2295 3.36228 29.3436 3.83458C29.4632 4.33018 29.4654 4.92226 29.3485 5.64441L29.34 5.69712V6.15982L29.7105 6.36382C30.0224 6.52466 30.27 6.70879 30.4601 6.91962C30.7771 7.27077 30.982 7.71706 31.0686 8.24617C31.1579 8.79035 31.1283 9.43788 30.982 10.171C30.813 11.0143 30.5398 11.7488 30.1709 12.3497C29.8315 12.9035 29.3992 13.3627 28.886 13.7188C28.396 14.0569 27.8137 14.3136 27.1554 14.4779C26.5174 14.6393 25.7903 14.7209 24.9926 14.7209H24.4786C24.1111 14.7209 23.754 14.8496 23.474 15.0803C23.1931 15.3158 23.007 15.6373 22.9501 15.9892L22.9113 16.194L22.2608 20.2015L22.2312 20.3487C22.2235 20.3954 22.2101 20.4187 22.1905 20.4344C22.1728 20.4486 22.1475 20.4583 22.1228 20.4583H18.9496Z" fill="#253B80"/>
<path d="M30.0596 5.75076C30.0399 5.87328 30.0174 5.99854 29.9921 6.12723C29.121 10.4745 26.1416 11.9763 22.3361 11.9763H20.3986C19.9332 11.9763 19.5411 12.3048 19.4685 12.7511L18.4765 18.8678L18.1956 20.6016C18.1483 20.8946 18.3808 21.1588 18.6848 21.1588H22.1215C22.5284 21.1588 22.874 20.8713 22.938 20.4812L22.9719 20.3114L23.619 16.3193L23.6605 16.1004C23.7238 15.7089 24.0701 15.4214 24.4771 15.4214H24.991C28.3205 15.4214 30.927 14.1072 31.6888 10.304C32.007 8.71531 31.8423 7.38877 31.0002 6.45579C30.7454 6.17446 30.4293 5.94104 30.0596 5.75076Z" fill="#179BD7"/>
<path d="M29.1498 5.39785C29.0168 5.36019 28.8794 5.32597 28.7386 5.29517C28.5971 5.26506 28.452 5.23836 28.3028 5.21509C27.7804 5.13295 27.208 5.09393 26.5947 5.09393H21.4186C21.2911 5.09393 21.1701 5.12199 21.0617 5.17265C20.8229 5.28421 20.6456 5.50395 20.6026 5.77295L19.5013 12.5536L19.4697 12.7514C19.5423 12.3051 19.9344 11.9765 20.3998 11.9765H22.3373C26.1428 11.9765 29.1224 10.4741 29.9933 6.12752C30.0192 5.99883 30.0411 5.87358 30.0608 5.75106C29.8405 5.63743 29.6017 5.54023 29.3448 5.45739C29.2815 5.43686 29.2161 5.41702 29.1498 5.39785Z" fill="#222D65"/>
<path d="M20.6017 5.77279C20.6447 5.50377 20.8222 5.28405 21.0607 5.17316C21.17 5.1225 21.2904 5.09444 21.4176 5.09444H26.594C27.2073 5.09444 27.7796 5.13345 28.3019 5.2156C28.4513 5.23887 28.5964 5.26557 28.7378 5.29567C28.8787 5.32649 29.0159 5.36072 29.149 5.39835C29.2151 5.41752 29.2806 5.43737 29.3446 5.45723C29.6016 5.54004 29.8403 5.63793 30.0606 5.75087C30.3199 4.14436 30.0586 3.05053 29.1653 2.06006C28.1803 0.969663 26.4025 0.502838 24.1277 0.502838H17.5236C17.0588 0.502838 16.6626 0.831381 16.5907 1.27836L13.8401 18.2299C13.7858 18.5653 14.0519 18.868 14.3996 18.868H18.4769L19.5006 12.5534L20.6017 5.77279Z" fill="#253B80"/>
</svg>
