<svg width="32" height="32" viewBox="0 0 32 32" fill="none" xmlns="http://www.w3.org/2000/svg">
<path d="M17.3327 21.3333H3.99935C3.64573 21.3333 3.30659 21.4738 3.05654 21.7239C2.80649 21.9739 2.66602 22.313 2.66602 22.6667C2.66602 23.0203 2.80649 23.3594 3.05654 23.6095C3.30659 23.8595 3.64573 24 3.99935 24H17.3327C17.6863 24 18.0254 23.8595 18.2755 23.6095C18.5255 23.3594 18.666 23.0203 18.666 22.6667C18.666 22.313 18.5255 21.9739 18.2755 21.7239C18.0254 21.4738 17.6863 21.3333 17.3327 21.3333ZM3.99935 10.6667H27.9993C28.353 10.6667 28.6921 10.5262 28.9422 10.2761C29.1922 10.0261 29.3327 9.68696 29.3327 9.33333C29.3327 8.97971 29.1922 8.64057 28.9422 8.39052C28.6921 8.14048 28.353 8 27.9993 8H3.99935C3.64573 8 3.30659 8.14048 3.05654 8.39052C2.80649 8.64057 2.66602 8.97971 2.66602 9.33333C2.66602 9.68696 2.80649 10.0261 3.05654 10.2761C3.30659 10.5262 3.64573 10.6667 3.99935 10.6667ZM27.9993 14.6667H3.99935C3.64573 14.6667 3.30659 14.8071 3.05654 15.0572C2.80649 15.3072 2.66602 15.6464 2.66602 16C2.66602 16.3536 2.80649 16.6928 3.05654 16.9428C3.30659 17.1929 3.64573 17.3333 3.99935 17.3333H27.9993C28.353 17.3333 28.6921 17.1929 28.9422 16.9428C29.1922 16.6928 29.3327 16.3536 29.3327 16C29.3327 15.6464 29.1922 15.3072 28.9422 15.0572C28.6921 14.8071 28.353 14.6667 27.9993 14.6667Z" fill="#262B35"/>
</svg>
